<svg xmlns="http://www.w3.org/2000/svg" xmlns:xlink="http://www.w3.org/1999/xlink" preserveAspectRatio="xMidYMid" width="50.187" height="30.125" viewBox="0 0 50.187 30.125">
  <defs>
    <style>
      .cls-1 {
        fill: #e67e22;
        fill-rule: evenodd;
      }
    </style>
  </defs>
  <path d="M47.828,27.414 L35.468,20.232 L35.468,9.908 L47.828,2.726 L50.199,2.726 L50.199,27.414 L47.828,27.414 ZM48.542,4.393 L48.271,4.393 L37.125,10.870 L37.125,19.269 L48.271,25.746 L48.542,25.746 L48.542,4.393 ZM32.468,30.124 L1.918,30.124 C0.854,30.124 -0.011,29.235 -0.011,28.142 L-0.011,1.998 C-0.011,0.905 0.854,0.015 1.918,0.015 L32.468,0.015 C33.531,0.015 34.397,0.905 34.397,1.998 L34.397,28.142 C34.397,29.235 33.531,30.124 32.468,30.124 ZM32.740,1.998 C32.740,1.824 32.618,1.683 32.468,1.683 L1.918,1.683 C1.767,1.683 1.645,1.824 1.645,1.998 L1.645,28.142 C1.645,28.316 1.767,28.457 1.918,28.457 L32.468,28.457 C32.618,28.457 32.740,28.316 32.740,28.142 L32.740,1.998 Z" class="cls-1"/>
</svg>
