<svg xmlns="http://www.w3.org/2000/svg" xmlns:xlink="http://www.w3.org/1999/xlink" preserveAspectRatio="xMidYMid" width="50.188" height="36.844" viewBox="0 0 50.188 36.844">
  <defs>
    <style>
      .cls-1 {
        fill: #e67e22;
        fill-rule: evenodd;
      }
    </style>
  </defs>
  <path d="M46.793,36.832 L3.412,36.832 C1.537,36.832 0.012,35.329 0.012,33.481 L0.012,8.048 C0.012,6.200 1.537,4.697 3.412,4.697 L13.873,4.697 C14.422,3.968 14.862,3.162 15.255,2.440 C16.000,1.078 16.587,0.001 17.663,0.001 L25.962,-0.007 L32.542,0.001 C33.618,0.001 34.205,1.078 34.950,2.441 C35.343,3.162 35.783,3.968 36.331,4.697 L46.793,4.697 C48.668,4.697 50.193,6.200 50.193,8.048 L50.193,33.481 C50.193,35.329 48.668,36.832 46.793,36.832 ZM48.522,8.048 C48.522,7.109 47.746,6.344 46.793,6.344 L35.523,6.344 L35.272,6.039 C34.511,5.115 33.939,4.065 33.478,3.221 C33.141,2.603 32.678,1.756 32.445,1.629 L29.129,1.645 L24.243,1.640 L17.663,1.648 C17.527,1.756 17.064,2.603 16.727,3.220 C16.266,4.064 15.693,5.115 14.932,6.039 L14.681,6.344 L3.412,6.344 C2.459,6.344 1.683,7.109 1.683,8.048 L1.683,33.481 C1.683,34.421 2.459,35.185 3.412,35.185 L46.793,35.185 C47.746,35.185 48.522,34.421 48.522,33.481 L48.522,8.048 ZM38.800,12.470 C37.796,12.470 36.983,11.669 36.983,10.680 C36.983,9.691 37.796,8.890 38.800,8.890 C39.803,8.890 40.616,9.691 40.616,10.680 C40.616,11.669 39.803,12.470 38.800,12.470 ZM25.016,32.039 C18.663,32.039 13.495,26.945 13.495,20.684 C13.495,14.424 18.663,9.330 25.016,9.330 C31.368,9.330 36.536,14.424 36.536,20.684 C36.536,26.945 31.368,32.039 25.016,32.039 ZM25.016,10.977 C19.584,10.977 15.166,15.332 15.166,20.684 C15.166,26.037 19.584,30.392 25.016,30.392 C30.447,30.392 34.865,26.037 34.865,20.684 C34.865,15.332 30.447,10.977 25.016,10.977 ZM5.782,1.940 L10.697,1.940 L10.697,3.835 L5.782,3.835 L5.782,1.940 Z" class="cls-1"/>
</svg>
